<svg id="ew3FPS7rB0E1" xmlns="http://www.w3.org/2000/svg" xmlns:xlink="http://www.w3.org/1999/xlink" viewBox="0 0 200 200" shape-rendering="geometricPrecision" text-rendering="geometricPrecision" project-id="8c403e373e834a5abe5933c11f29f395" export-id="fde7426917354534bee51ba4845def85" cached="false"><g transform="translate(-35.516408-38.526372)"><ellipse rx="2.903911" ry="2.468336" transform="translate(135.006817 64.027365)" fill="#fff" stroke="#000" stroke-width="0.5"/><ellipse rx="1.791437" ry="1.764912" transform="matrix(1.54596 0 0 1.435921 134.906187 64.340808)" stroke-width="0"/></g><g transform="translate(-39.025279-38.900484)"><path d="M186.044683,62.92489c0,0-.276785,3.127067-6.438117,3.697765-5.137783.475891-18.917875,0-18.917875,0h-2.158328l-8.578997-4.398958c0,0,13.251086-6.231272,17.276747-6.322537c3.860022-.087509,18.81657,7.02373,18.81657,7.02373" transform="translate(-.511022-.43815)" fill="#2a200a" stroke-width="0.6" stroke-linecap="round" stroke-linejoin="round"/><path d="" transform="translate(.000003 0.000001)" fill="none" stroke="#3f5787" stroke-width="0.6"/><path d="M141.667707,44.339832c2.959283-1.524062,3.176419,2.793922,10.458626,3.705344c2.800537.350508,7.077222-2.536815,9.366179-.885591c2.3672,1.707668,2.186392,9.480704,2.186392,9.480704l-11.090469,2.310513Q137.01299,60.672051,137.01299,60.57963c0-.092421.149036-13.919324,4.654717-16.239798Z" transform="translate(.000002 0.000002)" fill="#9a5321" stroke-width="0.6"/><path d="M165.77651,51.642689c5.485701,0,17.014564,8.193934,20.26817,11.282211.374919.355868-13.008731-6.525111-18.816564-5.564944-4.13361.68338-7.503596,4.037494-11.40496,5.564944-2.369771.927805-8.379407.988577-10.915244.773712-9.71723-.823355-18.518947-4.16096-28.548352-6.781052-.672256-.175621.414235-2.03325,1.10905-2.03325c5.606439,0,15.508661,3.454025,22.27349,4.066494c3.838202.3475,9.115132-.038105,12.846337-1.002812c4.379271-1.132265,9.522638-6.305303,13.188073-6.305303Z" fill="#643717" stroke-width="0.6"/></g><path d="M160.321448,75.834511c2.437314,2.176173,17.026485,29.76484,17.026485,31.974666s-14.318218,20.182384-14.318218,20.182384l-1.8-2.52c0,0,12.65936-16.221193,12.65936-17.758464s-14.027593-15.372704-14.935444-14.843047s1.754833,43.640662,1.754833,43.640662l-36.798641-.757394c0,0-.237307-3.370249.766271-8.417933c2.471311-12.429932,6.64588-34.061458,5.926422-34.838376-1.011623-1.092417-40.444695,32.028353-40.444695,32.028353l-1.992346-2.877833l46.291798-42.82869q22.208195-6.248591,25.864175-2.984328Z" transform="translate(-37.020153-39.082564)" fill="#e4d77a" stroke-width="0.6"/><path d="M136.79642,62.52306c-1.229772.07234-6.84461,6.910721-6.984376,10.297847s2.249534,5.61854,4.305649,8.750189s7.19278,11.10243,7.19278,11.10243s6.643323-8.687422,7.460314-10.824647s1.654813-2.665554,5.347338-3.680635s5.089331-1.24605,4.966827-2.32644-.306147-8.088129-1.660303-9.426167-4.452387-2.799214-5.826838-3.088572c-.773258-.162791-4.421054.431558-8.072897.132874-2.839237-.232221-6.190584-.968521-6.728494-.936879Z" transform="translate(-34.920206-38.909146)" fill="#b8e384" stroke-width="0.6"/><path d="M136.79642,62.52306c-1.229772.07234-6.84461,6.910721-6.984376,10.297847s2.249534,5.61854,4.305649,8.750189s7.19278,11.10243,7.19278,11.10243s6.643323-8.687422,7.460314-10.824647s1.654813-2.665554,5.347338-3.680635s5.089331-1.24605,4.966827-2.32644-.306147-8.088129-1.660303-9.426167-4.452387-2.799214-5.826838-3.088572c-.773258-.162791-4.421054.431558-8.072897.132874-2.839237-.232221-6.190584-.968521-6.728494-.936879Z" transform="translate(-34.920206-38.909146)" fill="#91b268" stroke-width="0.6"/><path d="M150.81489,82.0623c-.81699,2.13723-7.46031,10.82465-7.46031,10.82465s-5.13666-7.97078-7.19278-11.10243c-.52858-.80508-1.07918-1.55066-1.60318-2.27168c1.58498.79541,2.37746,1.20982,2.37746,1.24323c0,.05492,6.42593,10.92958,6.53578,10.70989.08879-.17757,5.48823-7.24465,7.5552-9.91875-.07207.16077-.1422.33203-.21218.51509h.00001Z" transform="translate(-36.964312-39.122568)" fill="#91b268" stroke-width="0.6"/><g transform="matrix(1.256038 0 0 1.298964-77.886726-58.709344)"><ellipse rx="2.903911" ry="2.468336" transform="translate(153.250687 64.862325)" fill="#fff" stroke="#000" stroke-width="0.5"/><ellipse rx="1.791437" ry="1.764912" transform="matrix(1.54596 0 0 1.189718 153.024813 65.175768)" stroke-width="0"/></g><path d="" transform="translate(-36.964312-39.122568)" fill="none" stroke="#3f5787" stroke-width="0.6"/><path d="M124.709831,127.233322c.32474-1.436726,35.39997-.248237,35.724033,2.624259.439851,3.898843,1.284554,63.920457-.237536,93.868079-.114481,2.252453-4.116906,1.717985-4.013863-.535022.125664-2.747599-.772899-44.441668-2.229392-47.538045-.840352-1.786515-4.053604-36.158759-4.67793-36.158759-.416217,0-4.569586,1.282783-7.986302,1.127478s-7.525039-1.267797-8.55004-1.221435c-.839087.037953-4.978755,30.796256-9.790975,38.769419-1.920557,3.182089-6.586879,41.998714-7.342536,45.021342-.386449,1.545797-4.144146,2.335118-4.106355-.713629.048637-3.923763,12.550896-92.323687,13.210896-95.243687Z" transform="translate(-36.964311-39.122568)" fill="#53362a" stroke-width="0.6"/><g transform="translate(-36.964311-39.122568)"><path d="M83.529809,118.342791c-.605788-.787742-41.230079-.270213-41.230079-.270213l-.354284,2.479984h28.815052l-.000001,4.605685l13.108485-.236189c0,0,.266615-5.791525-.339173-6.579267Z" transform="translate(3.414446-8.142126)" stroke-width="0.6" stroke-linecap="round" stroke-linejoin="round"/><path d="M83.868987,124.922058c0,0,.231908,3.05474.765941,4.737649s3.143982,5.179497,2.814906,5.602792c-.892946,1.148609-4.570126.099083-6.61576-.680374-.670903-.255637-.034246-3.520552-.249237-5.233963s-3.403298-4.336248-3.403298-4.336248l6.687448-.089856Z" transform="translate(3.414441-8.142126)" fill="#70442a" stroke-width="0.6"/><path d="" transform="translate(3.41444-8.142126)" fill="none" stroke="#3f5787" stroke-width="0.6"/><path d="M71.057836,125.030012c-.023142,1.554211,2.479495,2.88311,2.997189,3.209925s1.415441.915315,2.273829-.121812c1.031289-1.246031.223323-3.288932.223323-3.288932s-5.471199-1.353392-5.494341.200819Z" transform="translate(3.41444-8.142124)" fill="none" stroke="#000" stroke-width="0.6"/><path d="M72.833413,124.999248c0,0,.270327.775495,1.247775,2.272055.352182.539221,1.21805.720504,1.122552.36344-.102552-.38344-1.34-2.68-1.34-2.68q-1.030327.044505-1.030327.044505Z" transform="translate(3.760883-8.167533)" stroke-width="0.6"/></g><rect width="1.182005" height="1.891804" rx="0" ry="0" transform="matrix(.471983 0 0 1 9.560733 69.612194)" stroke-width="0"/><path d="M86.313283,110.299676c.072537-.193433.477034-2.000322,2.139857-2.393738" transform="translate(-36.619559-38.708867)" fill="none" stroke="#000" stroke-width="0.6"/><path d="M88.207463,121.83758c0,0-2.490176-.439058-2.919775.417111s.716822,2.617066,1.643907,3.017919s3.189671-.834221,3.189671-.834221l-1.913803-2.600809Z" transform="translate(-36.833559-39.207944)" fill="#b8e384" stroke-width="0.6"/><path d="M88.41508,121.95086c0,0-2.697793-.552338-3.127392.303831s.716822,2.617066,1.643907,3.017919s3.083485-.96175,3.083485-.96175l-1.6-2.36Z" transform="translate(35.994482-35.521863)" fill="#b8e384" stroke-width="0.6"/><path d="" transform="translate(-36.964312-39.122568)" fill="none" stroke="#3f5787" stroke-width="0.6"/><path d="" transform="translate(-36.964312-39.122568)" fill="none" stroke="#3f5787" stroke-width="0.6"/><ellipse rx="0.374673" ry="0.428197" transform="matrix(.015264 0.999884-.999884 0.015264 99.857132 31.074372)" stroke-width="0"/><ellipse rx="0.374673" ry="0.428197" transform="matrix(-.281345 0.959607-.959607-.281345 102.579341 30.790165)" stroke-width="0"/><path d="M132.183703,74.974251c.51716,0,4.255721-.758649,6.787549-.849072c3.273796-.116922,6.548031.29835,7.727665.697952c1.012943.343135,2.557889.861836,2.557889.861836" transform="translate(-36.964311-39.122565)" fill="none" stroke="#000" stroke-width="0.6" stroke-linecap="round"/><path d="" transform="translate(-36.964312-39.122568)" fill="none" stroke="#3f5787" stroke-width="0.6"/><path d="M112.162992,223.054389l-20.349187,7.365657l21.472761-2.746517q-.249685,2.621673.12484,2.621673c.374525,0,2.871357.124842,2.871357-.499367q0-.624209-1.123575-6.74145l-2.996196.000004Z" transform="translate(-36.964309-39.122564)" stroke="#000" stroke-width="0.6"/><path d="M156.873535,224.117598l3.103117.179026c0,0,7.052978,11.74272,6.08328,12.290717s-9.186397-12.469743-9.186397-12.469743Z" transform="translate(-36.96431-39.122568)" stroke="#000" stroke-width="0.6"/></svg>
